<?xml version="1.0" encoding="utf-8"?>
<svg version="1.1" id="Layer_1" xmlns="http://www.w3.org/2000/svg" xmlns:xlink="http://www.w3.org/1999/xlink" x="0px" y="0px" viewBox="0 0 274.1 154.9" style="enable-background:new 0 0 274.1 154.9;" xml:space="preserve">
<style type="text/css">
	.st0{fill:#5B5C60;}
	.st1{fill:#FA4B18;}
</style>
<path class="st0" d="M22.1,76.9c0-10.1,2.9-18.4,8.7-24.7s14.1-9.5,24.9-9.5c3.1,0,6.3,0.4,9.5,1.1c3.2,0.8,5.8,1.8,7.8,3.3L71,62l-8.5-0.6l-0.2-7.1c0-1-0.3-1.5-1-1.7c-2.2-0.7-4.6-1-7.1-1c-5.9,0-10.6,2.2-14.1,6.7c-3.5,4.4-5.2,10.4-5.2,17.9C34.9,87.4,39.6,93,49,93c3,0,5.4-0.3,7-0.8c0.6-0.2,1-0.6,1.1-1.4l1.5-10.4h-8.8l2.1-7.1h23.9L75,79.2l-3.2,0.5c-0.9,0.1-1.4,0.5-1.4,1.2L68,98.1c-5.7,2.4-12.7,3.7-20.9,3.7c-8.7,0-15-2.3-19-6.8C24.1,90.5,22.1,84.5,22.1,76.9"/>
<path class="st0" d="M86.9,77.6c8.8-1.2,13.2-3.6,13.2-7.1c0-2-1.3-3-3.9-3c-2.2,0-4.2,0.9-5.9,2.7C88.6,72,87.5,74.5,86.9,77.6 M74.1,85c0-8,2.3-14.4,6.8-19s10.2-7,17-7c4.3,0,7.6,0.9,9.8,2.7c2.2,1.8,3.3,4.4,3.3,7.7c0,2.7-0.7,5-2,7s-3.2,3.6-5.7,4.7c-2.5,1.2-5,2-7.7,2.6s-5.7,1.1-9.2,1.4c0.3,5.2,3,7.7,7.9,7.7c3.2,0,7-0.9,11.6-2.9l1.8,7.7c-5.8,2.6-11.3,3.9-16.6,3.9c-5.9,0-10.2-1.5-12.9-4.5C75.5,94.2,74.1,90.1,74.1,85"/>
<path class="st0" d="M109,68.3l-2.7-6.3c7.7-0.3,9.8-2.5,11.7-4.4c1.9-1.9,3.4-4.9,4.4-9.2h7.4L128.3,59c-0.1,0.5,0.1,0.7,0.6,0.7h9.9l-1.1,8.5h-10.5l-2.6,18.4c-0.2,1-0.2,1.9-0.2,2.5c0,1.4,0.3,2.4,1,2.9c0.7,0.6,1.9,0.9,3.6,0.9c2,0,4.1-0.4,6.4-1.2l1.4,7c-4.4,2-8.8,3.1-13.3,3.1c-4,0-7-0.7-8.8-2.2c-1.8-1.4-2.7-3.8-2.7-7c0-1,0.1-2.2,0.2-3.4L115,69c0.1-0.5-0.1-0.8-0.5-0.8H109V68.3z"/>
<path class="st0" d="M138,49.6l0.8-5.8h24.8l-0.8,5.8l-5.3,0.6c-0.6,0.1-1,0.2-1.1,0.3c-0.1,0.2-0.2,0.6-0.4,1.2l-3.8,26.4c-0.3,2.1-0.5,3.9-0.5,5.5c0,2.9,0.7,5.1,2.2,6.4c1.4,1.3,3.8,2,7,2c4.2,0,7.2-1.1,9.2-3.2s3.3-5.7,4-10.7l3.8-26.5c0.1-0.6,0.1-1,0-1.2s-0.5-0.3-1-0.4l-4.9-0.5l0.8-5.8H196l-0.8,5.8l-5.4,0.6c-0.6,0.1-1,0.2-1.1,0.4s-0.2,0.6-0.3,1.1l-4.1,28.7c-1.1,7.4-3.6,12.8-7.6,16.2c-4,3.4-9.6,5.1-16.8,5.1c-6.9,0-12-1.4-15.4-4.1c-3.4-2.8-5.1-7-5.1-12.7c0-1.3,0.1-2.9,0.4-4.9l3.9-28.3c0.2-1-0.2-1.5-0.9-1.6L138,49.6z"/>
<path class="st1" d="M182.3,110.1c-14.6-1.4-29.7-1.8-45.3-1.8c-43.5,0-85.1,7.8-123.7,26.1C52.7,123,94.1,116.8,137,116.8c14.8,0,29.5,0.8,44,2.2L182.3,110.1z"/>
<path class="st1" d="M196.7,120.8c21.9,3,43.2,7.5,64,13.5l-2.7-4.7c-19.7-9.3-39.5-14.7-60-17.7L196.7,120.8z"/>
<path class="st0" d="M216.6,59c-4.6,0-9.5,2.3-14.7,6.9l-0.3-0.1l1-6.1h-16l-0.9,5.8l3.9,1.4c0.7,0.2,0.9,0.8,0.7,1.7l-5,35.3l-2.2,15.2c4.2,0.4,8.3,0.9,11.5,1.4l3.3-22.6c1.3,0.9,2.3,1.5,3.1,1.9s1.9,0.9,3.4,1.3s3,0.6,4.6,0.6c3.5,0,6.6-0.9,9.2-2.7c2.6-1.8,4.6-4.1,5.9-6.9c1.3-2.9,2.3-5.7,2.9-8.7c0.6-2.9,0.9-5.9,0.9-8.9C228.1,64.2,224.2,59,216.6,59z M214.9,84.1c-0.5,2.4-1.5,4.4-2.9,6.2c-1.4,1.8-3.1,2.7-5.2,2.7c-2.6,0-5.2-1.1-7.6-3.2l2.2-15.1c4.5-4,7.9-6,10.2-6c2.8,0,4.2,2.6,4.2,7.9C215.7,79.2,215.5,81.7,214.9,84.1z"/>
<path class="st1" d="M236.8,97c2,0.5,3.6,1.7,4.7,3.5c1.1,1.8,1.3,3.7,0.8,5.8c-0.5,2-1.7,3.6-3.5,4.6c-1.8,1.1-3.7,1.3-5.8,0.8c-2-0.5-3.6-1.7-4.7-3.5c-1.1-1.8-1.3-3.7-0.8-5.8c0.5-2.1,1.7-3.6,3.5-4.7C232.9,96.8,234.8,96.5,236.8,97z M239.6,89.6l-1.2-0.3l6.1-47.1c0.5-3.9,1-6.8,1.5-8.9c0.7-2.7,1.9-4.6,3.6-5.8c1.7-1.2,3.8-1.4,6.2-0.8c2.2,0.6,3.8,1.8,4.8,3.6c0.9,1.8,1.1,4,0.4,6.6c-0.5,1.8-1.4,4.3-2.7,7.6L239.6,89.6z"/>
</svg>
